<svg xmlns="http://www.w3.org/2000/svg" version="1.1" xmlns:xlink="http://www.w3.org/1999/xlink" width="512" height="512"><svg width="512" height="512" viewBox="0 0 512 512" fill="none" xmlns="http://www.w3.org/2000/svg">
<path d="M512 166.4L137.429 325.888C106.368 339.044 80.2841 345.622 59.1783 345.622C35.285 345.622 17.9552 337.252 7.18896 320.512C0.433407 309.76 -1.5577 296.121 1.21563 279.595C4.00318 263.069 11.3703 245.448 23.317 226.731C33.2725 211.584 49.6067 191.673 72.3196 166.998C64.6056 179.125 58.954 192.447 55.5943 206.422C49.621 231.908 54.997 250.624 71.7223 262.571C79.6867 268.146 90.6379 270.934 104.576 270.934C115.712 270.934 128.256 269.142 142.208 265.558L512 166.4Z" fill="#FE0001"></path>
</svg><style>@media (prefers-color-scheme: light) { :root { filter: none; } }
@media (prefers-color-scheme: dark) { :root { filter: none; } }
</style></svg>